<svg width="20" height="16" viewBox="0 0 20 16" fill="none" xmlns="http://www.w3.org/2000/svg">
<path d="M20 11.0692C20 11.5101 19.935 11.9325 19.8111 12.3333C19.4458 13.5266 18.5821 14.504 17.4613 15.0189C16.9072 15.2748 16.288 15.4167 15.6348 15.4167H6.06836C5.69065 15.4167 5.34701 15.281 5.07766 15.059C4.73711 14.7753 4.52039 14.3498 4.52039 13.875C4.52039 13.4002 4.73711 12.9747 5.07766 12.691C5.34701 12.469 5.69065 12.3333 6.06836 12.3333H6.59776C7.47081 12.3333 8.19216 11.6272 8.17358 10.7608C8.1581 9.92525 7.47081 9.25 6.62562 9.25H1.57617C0.706219 9.25 -0.0182261 8.54392 0.000349467 7.6775C0.0158291 6.84192 0.703124 6.16667 1.54831 6.16667H5.5761C6.44915 6.16667 7.1705 5.46058 7.15193 4.59417C7.13645 3.75858 6.44915 3.08333 5.60397 3.08333H4.20771C3.33466 3.08333 2.61331 2.37725 2.63188 1.51083C2.64736 0.67525 3.33466 0 4.17984 0H14.1178C14.2013 0 14.2849 0.00308333 14.3654 0.00925C15.7121 0.0955833 16.8638 0.884917 17.4613 2.01033C17.6378 2.34333 17.7647 2.70408 17.8329 3.08333C17.8731 3.30225 17.8948 3.53042 17.8948 3.76167C17.8948 4.31667 17.774 4.84083 17.5604 5.31258C17.5047 5.39892 17.4582 5.4945 17.418 5.59008C17.353 5.76275 17.3158 5.94775 17.3158 6.142C17.3158 6.63225 17.5449 7.07008 17.9072 7.35375C17.9784 7.40925 18.0558 7.46167 18.1394 7.50483C18.7709 7.94575 19.2787 8.547 19.6037 9.24692C19.8576 9.805 20 10.4186 20 11.0692Z" fill="#EDEDED"/>
</svg>
